<svg width="25" height="24" viewBox="0 0 25 24" fill="none" xmlns="http://www.w3.org/2000/svg">
<mask id="mask0_57_179" style="mask-type:alpha" maskUnits="userSpaceOnUse" x="0" y="0" width="25" height="24">
<rect width="24.2567" height="24" fill="#1E1E1E"/>
</mask>
<g mask="url(#mask0_57_179)">
<path d="M16.1713 13.5C16.6092 13.5 16.9714 13.3583 17.2578 13.075C17.5441 12.7917 17.6873 12.4333 17.6873 12C17.6873 11.5667 17.5441 11.2083 17.2578 10.925C16.9714 10.6417 16.6092 10.5 16.1713 10.5C15.7333 10.5 15.3711 10.6417 15.0848 10.925C14.7984 11.2083 14.6552 11.5667 14.6552 12C14.6552 12.4333 14.7984 12.7917 15.0848 13.075C15.3711 13.3583 15.7333 13.5 16.1713 13.5ZM5.05362 21C4.49773 21 4.02187 20.8042 3.62601 20.4125C3.23015 20.0208 3.03223 19.55 3.03223 19V5C3.03223 4.45 3.23015 3.97917 3.62601 3.5875C4.02187 3.19583 4.49773 3 5.05362 3H19.2034C19.7592 3 20.2351 3.19583 20.631 3.5875C21.0268 3.97917 21.2247 4.45 21.2247 5V7.5H19.2034V5H5.05362V19H19.2034V16.5H21.2247V19C21.2247 19.55 21.0268 20.0208 20.631 20.4125C20.2351 20.8042 19.7592 21 19.2034 21H5.05362ZM13.1392 17C12.5833 17 12.1074 16.8042 11.7116 16.4125C11.3157 16.0208 11.1178 15.55 11.1178 15V9C11.1178 8.45 11.3157 7.97917 11.7116 7.5875C12.1074 7.19583 12.5833 7 13.1392 7H20.214C20.7699 7 21.2458 7.19583 21.6417 7.5875C22.0375 7.97917 22.2354 8.45 22.2354 9V15C22.2354 15.55 22.0375 16.0208 21.6417 16.4125C21.2458 16.8042 20.7699 17 20.214 17H13.1392ZM20.214 15V9H13.1392V15H20.214Z" fill="#1E1E1E"/>
</g>
</svg>
