<svg width="25" height="24" viewBox="0 0 25 24" fill="none" xmlns="http://www.w3.org/2000/svg">
<mask id="mask0_57_174" style="mask-type:alpha" maskUnits="userSpaceOnUse" x="0" y="0" width="25" height="24">
<rect width="24.2567" height="24" fill="#D9D9D9"/>
</mask>
<g mask="url(#mask0_57_174)">
<path d="M5.05362 17.85C5.96324 16.9667 7.02026 16.2708 8.22467 15.7625C9.42909 15.2542 10.7304 15 12.1285 15C13.5266 15 14.8279 15.2542 16.0323 15.7625C17.2367 16.2708 18.2937 16.9667 19.2034 17.85V5H5.05362V17.85ZM12.1285 13C13.1055 13 13.9393 12.6583 14.63 11.975C15.3206 11.2917 15.6659 10.4667 15.6659 9.5C15.6659 8.53333 15.3206 7.70833 14.63 7.025C13.9393 6.34167 13.1055 6 12.1285 6C11.1515 6 10.3177 6.34167 9.62701 7.025C8.93637 7.70833 8.59105 8.53333 8.59105 9.5C8.59105 10.4667 8.93637 11.2917 9.62701 11.975C10.3177 12.6583 11.1515 13 12.1285 13ZM5.05362 21C4.49773 21 4.02187 20.8042 3.62601 20.4125C3.23015 20.0208 3.03223 19.55 3.03223 19V5C3.03223 4.45 3.23015 3.97917 3.62601 3.5875C4.02187 3.19583 4.49773 3 5.05362 3H19.2034C19.7592 3 20.2351 3.19583 20.631 3.5875C21.0268 3.97917 21.2247 4.45 21.2247 5V19C21.2247 19.55 21.0268 20.0208 20.631 20.4125C20.2351 20.8042 19.7592 21 19.2034 21H5.05362ZM7.07501 19H17.182V18.75C16.4745 18.1667 15.6912 17.7292 14.8321 17.4375C13.973 17.1458 13.0718 17 12.1285 17C11.1852 17 10.284 17.1458 9.42487 17.4375C8.56578 17.7292 7.78249 18.1667 7.07501 18.75V19ZM12.1285 11C11.7074 11 11.3494 10.8542 11.0546 10.5625C10.7598 10.2708 10.6124 9.91667 10.6124 9.5C10.6124 9.08333 10.7598 8.72917 11.0546 8.4375C11.3494 8.14583 11.7074 8 12.1285 8C12.5496 8 12.9076 8.14583 13.2023 8.4375C13.4971 8.72917 13.6445 9.08333 13.6445 9.5C13.6445 9.91667 13.4971 10.2708 13.2023 10.5625C12.9076 10.8542 12.5496 11 12.1285 11Z" fill="#1C1B1F"/>
</g>
</svg>
