<svg width="61" height="61" viewBox="0 0 61 61" fill="none" xmlns="http://www.w3.org/2000/svg">
<path d="M7.12195 49.9484C10.1491 46.9772 13.6668 44.6368 17.675 42.927C21.6832 41.2172 26.0138 40.3623 30.6666 40.3623C35.3195 40.3623 39.65 41.2172 43.6582 42.927C47.6664 44.6368 51.1841 46.9772 54.2113 49.9484V6.72705H7.12195V49.9484ZM30.6666 33.6353C33.918 33.6353 36.6929 32.486 38.9914 30.1876C41.2898 27.8892 42.439 25.1143 42.439 21.8629C42.439 18.6115 41.2898 15.8366 38.9914 13.5382C36.6929 11.2398 33.918 10.0906 30.6666 10.0906C27.4152 10.0906 24.6403 11.2398 22.3419 13.5382C20.0435 15.8366 18.8943 18.6115 18.8943 21.8629C18.8943 25.1143 20.0435 27.8892 22.3419 30.1876C24.6403 32.486 27.4152 33.6353 30.6666 33.6353ZM7.12195 60.5435C5.27201 60.5435 3.68835 59.8848 2.37097 58.5674C1.05359 57.25 0.394897 55.6663 0.394897 53.8164V6.72705C0.394897 4.87711 1.05359 3.29345 2.37097 1.97607C3.68835 0.65869 5.27201 0 7.12195 0H54.2113C56.0612 0 57.6449 0.65869 58.9623 1.97607C60.2797 3.29345 60.9384 4.87711 60.9384 6.72705V53.8164C60.9384 55.6663 60.2797 57.25 58.9623 58.5674C57.6449 59.8848 56.0612 60.5435 54.2113 60.5435H7.12195ZM13.849 53.8164H47.4843V52.9755C45.1298 51.0135 42.5231 49.5419 39.6641 48.5609C36.8051 47.5799 33.8059 47.0894 30.6666 47.0894C27.5273 47.0894 24.5282 47.5799 21.6692 48.5609C18.8102 49.5419 16.2035 51.0135 13.849 52.9755V53.8164ZM30.6666 26.9082C29.2652 26.9082 28.0739 26.4177 27.0929 25.4367C26.1119 24.4556 25.6213 23.2644 25.6213 21.8629C25.6213 20.4614 26.1119 19.2702 27.0929 18.2892C28.0739 17.3081 29.2652 16.8176 30.6666 16.8176C32.0681 16.8176 33.2593 17.3081 34.2404 18.2892C35.2214 19.2702 35.7119 20.4614 35.7119 21.8629C35.7119 23.2644 35.2214 24.4556 34.2404 25.4367C33.2593 26.4177 32.0681 26.9082 30.6666 26.9082Z" fill="#DE1D2D"/>
</svg>
