<svg width="62" height="55" viewBox="0 0 62 55" fill="none" xmlns="http://www.w3.org/2000/svg">
<path d="M10.8188 47.4529V50.8164C10.8188 51.7694 10.4965 52.5682 9.85183 53.2129C9.20716 53.8576 8.40832 54.1799 7.45532 54.1799H4.0918C3.1388 54.1799 2.33996 53.8576 1.69529 53.2129C1.05061 52.5682 0.728271 51.7694 0.728271 50.8164V23.9082L7.79168 3.72705C8.12803 2.71799 8.73066 1.90514 9.59957 1.28849C10.4685 0.671849 11.4355 0.363525 12.5006 0.363525H49.4994C50.5645 0.363525 51.5315 0.671849 52.4004 1.28849C53.2693 1.90514 53.872 2.71799 54.2083 3.72705L61.2717 23.9082V50.8164C61.2717 51.7694 60.9494 52.5682 60.3047 53.2129C59.66 53.8576 58.8612 54.1799 57.9082 54.1799H54.5447C53.5917 54.1799 52.7928 53.8576 52.1482 53.2129C51.5035 52.5682 51.1812 51.7694 51.1812 50.8164V47.4529H10.8188ZM10.1461 17.1812H51.8539L48.3222 7.09058H13.6778L10.1461 17.1812ZM15.8641 37.3623C17.2656 37.3623 18.4569 36.8718 19.4379 35.8908C20.4189 34.9097 20.9094 33.7185 20.9094 32.317C20.9094 30.9155 20.4189 29.7243 19.4379 28.7433C18.4569 27.7622 17.2656 27.2717 15.8641 27.2717C14.4627 27.2717 13.2714 27.7622 12.2904 28.7433C11.3094 29.7243 10.8188 30.9155 10.8188 32.317C10.8188 33.7185 11.3094 34.9097 12.2904 35.8908C13.2714 36.8718 14.4627 37.3623 15.8641 37.3623ZM46.1359 37.3623C47.5373 37.3623 48.7286 36.8718 49.7096 35.8908C50.6906 34.9097 51.1812 33.7185 51.1812 32.317C51.1812 30.9155 50.6906 29.7243 49.7096 28.7433C48.7286 27.7622 47.5373 27.2717 46.1359 27.2717C44.7344 27.2717 43.5431 27.7622 42.5621 28.7433C41.5811 29.7243 41.0906 30.9155 41.0906 32.317C41.0906 33.7185 41.5811 34.9097 42.5621 35.8908C43.5431 36.8718 44.7344 37.3623 46.1359 37.3623ZM7.45532 40.7258H54.5447V23.9082H7.45532V40.7258Z" fill="#DE1D2D"/>
</svg>
