<svg width="38" height="39" viewBox="0 0 38 39" fill="none" xmlns="http://www.w3.org/2000/svg">
<mask id="mask0_56_29" style="mask-type:alpha" maskUnits="userSpaceOnUse" x="0" y="0" width="38" height="39">
<rect y="0.5" width="38" height="38" fill="#D9D9D9"/>
</mask>
<g mask="url(#mask0_56_29)">
<path d="M9.5 30.5834V32.1668C9.5 32.6154 9.34826 32.9914 9.04479 33.2949C8.74132 33.5984 8.36528 33.7501 7.91667 33.7501H6.33333C5.88472 33.7501 5.50868 33.5984 5.20521 33.2949C4.90174 32.9914 4.75 32.6154 4.75 32.1668V19.5001L8.075 10.0001C8.23333 9.5251 8.51701 9.14246 8.92604 8.85218C9.33507 8.5619 9.79028 8.41676 10.2917 8.41676H27.7083C28.2097 8.41676 28.6649 8.5619 29.074 8.85218C29.483 9.14246 29.7667 9.5251 29.925 10.0001L33.25 19.5001V32.1668C33.25 32.6154 33.0983 32.9914 32.7948 33.2949C32.4913 33.5984 32.1153 33.7501 31.6667 33.7501H30.0833C29.6347 33.7501 29.2587 33.5984 28.9552 33.2949C28.6517 32.9914 28.5 32.6154 28.5 32.1668V30.5834H9.5ZM9.18333 16.3334H28.8167L27.1542 11.5834H10.8458L9.18333 16.3334ZM11.875 25.8334C12.5347 25.8334 13.0955 25.6025 13.5573 25.1407C14.0191 24.6789 14.25 24.1182 14.25 23.4584C14.25 22.7987 14.0191 22.2379 13.5573 21.7761C13.0955 21.3143 12.5347 21.0834 11.875 21.0834C11.2153 21.0834 10.6545 21.3143 10.1927 21.7761C9.7309 22.2379 9.5 22.7987 9.5 23.4584C9.5 24.1182 9.7309 24.6789 10.1927 25.1407C10.6545 25.6025 11.2153 25.8334 11.875 25.8334ZM26.125 25.8334C26.7847 25.8334 27.3455 25.6025 27.8073 25.1407C28.2691 24.6789 28.5 24.1182 28.5 23.4584C28.5 22.7987 28.2691 22.2379 27.8073 21.7761C27.3455 21.3143 26.7847 21.0834 26.125 21.0834C25.4653 21.0834 24.9045 21.3143 24.4427 21.7761C23.9809 22.2379 23.75 22.7987 23.75 23.4584C23.75 24.1182 23.9809 24.6789 24.4427 25.1407C24.9045 25.6025 25.4653 25.8334 26.125 25.8334ZM7.91667 27.4168H30.0833V19.5001H7.91667V27.4168Z" fill="#DE1D2D"/>
</g>
</svg>
