<svg width="24" height="24" viewBox="0 0 24 24" fill="none" xmlns="http://www.w3.org/2000/svg">
<mask id="mask0_1_41" style="mask-type:alpha" maskUnits="userSpaceOnUse" x="0" y="0" width="24" height="24">
<rect width="24" height="24" fill="#D9D9D9"/>
</mask>
<g mask="url(#mask0_1_41)">
<path d="M2.99951 19.9999V8.69991C2.71618 8.51658 2.47868 8.28324 2.28701 7.99991C2.09535 7.71658 1.99951 7.38324 1.99951 6.99991V3.99991C1.99951 3.44991 2.19535 2.97908 2.58701 2.58741C2.97868 2.19574 3.44951 1.99991 3.99951 1.99991H19.9995C20.5495 1.99991 21.0203 2.19574 21.412 2.58741C21.8037 2.97908 21.9995 3.44991 21.9995 3.99991V6.99991C21.9995 7.38324 21.9037 7.71658 21.712 7.99991C21.5203 8.28324 21.2829 8.51658 20.9995 8.69991V19.9999C20.9995 20.5499 20.8037 21.0207 20.412 21.4124C20.0203 21.8041 19.5495 21.9999 18.9995 21.9999H4.99951C4.44951 21.9999 3.97868 21.8041 3.58701 21.4124C3.19535 21.0207 2.99951 20.5499 2.99951 19.9999ZM4.99951 8.99991V19.9999H18.9995V8.99991H4.99951ZM19.9995 6.99991V3.99991H3.99951V6.99991H19.9995ZM8.99951 13.9999H14.9995V11.9999H8.99951V13.9999Z" fill="#DE1D2D"/>
</g>
</svg>
