<svg width="24" height="24" viewBox="0 0 24 24" fill="none" xmlns="http://www.w3.org/2000/svg">
<mask id="mask0_1_36" style="mask-type:alpha" maskUnits="userSpaceOnUse" x="0" y="0" width="24" height="24">
<rect width="24" height="24" fill="#D9D9D9"/>
</mask>
<g mask="url(#mask0_1_36)">
<path d="M3 20V8.69997C2.71667 8.51664 2.47917 8.2833 2.2875 7.99997C2.09583 7.71664 2 7.3833 2 6.99997V3.99997C2 3.44997 2.19583 2.97914 2.5875 2.58747C2.97917 2.1958 3.45 1.99997 4 1.99997H20C20.55 1.99997 21.0208 2.1958 21.4125 2.58747C21.8042 2.97914 22 3.44997 22 3.99997V6.99997C22 7.3833 21.9042 7.71664 21.7125 7.99997C21.5208 8.2833 21.2833 8.51664 21 8.69997V20C21 20.55 20.8042 21.0208 20.4125 21.4125C20.0208 21.8041 19.55 22 19 22H5C4.45 22 3.97917 21.8041 3.5875 21.4125C3.19583 21.0208 3 20.55 3 20ZM5 8.99997V20H19V8.99997H5ZM20 6.99997V3.99997H4V6.99997H20ZM9 14H15V12H9V14Z" fill="#DE1D2D"/>
</g>
</svg>
