<svg width="24" height="24" viewBox="0 0 24 24" fill="none" xmlns="http://www.w3.org/2000/svg">
<mask id="mask0_1_31" style="mask-type:alpha" maskUnits="userSpaceOnUse" x="0" y="0" width="24" height="24">
<rect width="24" height="24" fill="#D9D9D9"/>
</mask>
<g mask="url(#mask0_1_31)">
<path d="M3.00024 20V8.69997C2.71691 8.51664 2.47941 8.2833 2.28774 7.99997C2.09608 7.71664 2.00024 7.3833 2.00024 6.99997V3.99997C2.00024 3.44997 2.19608 2.97914 2.58774 2.58747C2.97941 2.1958 3.45024 1.99997 4.00024 1.99997H20.0002C20.5502 1.99997 21.0211 2.1958 21.4127 2.58747C21.8044 2.97914 22.0002 3.44997 22.0002 3.99997V6.99997C22.0002 7.3833 21.9044 7.71664 21.7127 7.99997C21.5211 8.2833 21.2836 8.51664 21.0002 8.69997V20C21.0002 20.55 20.8044 21.0208 20.4127 21.4125C20.0211 21.8041 19.5502 22 19.0002 22H5.00024C4.45024 22 3.97941 21.8041 3.58774 21.4125C3.19608 21.0208 3.00024 20.55 3.00024 20ZM5.00024 8.99997V20H19.0002V8.99997H5.00024ZM20.0002 6.99997V3.99997H4.00024V6.99997H20.0002ZM9.00025 14H15.0002V12H9.00025V14Z" fill="#DE1D2D"/>
</g>
</svg>
