<svg width="69" height="61" viewBox="0 0 69 61" fill="none" xmlns="http://www.w3.org/2000/svg">
<path d="M64.605 27.0764V53.8164C64.605 55.6663 63.9464 57.25 62.629 58.5674C61.3116 59.8848 59.7279 60.5435 57.878 60.5435H10.7886C8.93871 60.5435 7.35505 59.8848 6.03767 58.5674C4.72029 57.25 4.0616 55.6663 4.0616 53.8164V27.0764C2.77225 25.8991 1.7772 24.3856 1.07647 22.5356C0.375734 20.6857 0.361719 18.6676 1.03442 16.4813L4.56613 5.04529C5.0146 3.58776 5.81343 2.3825 6.96264 1.4295C8.11184 0.476499 9.44324 0 10.9568 0H57.7098C59.2234 0 60.5408 0.462485 61.662 1.38745C62.7831 2.31242 63.596 3.5317 64.1005 5.04529L67.6322 16.4813C68.3049 18.6676 68.2909 20.6577 67.5902 22.4515C66.8894 24.2454 65.8944 25.787 64.605 27.0764ZM41.7331 23.5447C43.2467 23.5447 44.3959 23.0261 45.1807 21.989C45.9655 20.952 46.2738 19.7887 46.1057 18.4994L44.2557 6.72705H37.6968V19.1721C37.6968 20.3493 38.0893 21.3724 38.8741 22.2413C39.6589 23.1102 40.6119 23.5447 41.7331 23.5447ZM26.5972 23.5447C27.8866 23.5447 28.9377 23.1102 29.7505 22.2413C30.5634 21.3724 30.9698 20.3493 30.9698 19.1721V6.72705H24.4109L22.561 18.4994C22.3368 19.8448 22.6311 21.022 23.4439 22.0311C24.2568 23.0401 25.3079 23.5447 26.5972 23.5447ZM11.6295 23.5447C12.6386 23.5447 13.5215 23.1803 14.2783 22.4515C15.0351 21.7228 15.4976 20.7978 15.6658 19.6766L17.5157 6.72705H10.9568L7.5933 17.9949C7.25695 19.116 7.43914 20.3213 8.13987 21.6107C8.8406 22.9 10.0038 23.5447 11.6295 23.5447ZM57.0371 23.5447C58.6628 23.5447 59.8401 22.9 60.5688 21.6107C61.2976 20.3213 61.4658 19.116 61.0733 17.9949L57.5416 6.72705H51.1509L53.0009 19.6766C53.1691 20.7978 53.6315 21.7228 54.3883 22.4515C55.1451 23.1803 56.0281 23.5447 57.0371 23.5447ZM10.7886 53.8164H57.878V30.1036C57.5977 30.2157 57.4155 30.2717 57.3314 30.2717H57.0371C55.5235 30.2717 54.1921 30.0195 53.0429 29.5149C51.8937 29.0104 50.7585 28.1976 49.6374 27.0764C48.6283 28.0854 47.4791 28.8703 46.1898 29.4308C44.9004 29.9914 43.527 30.2717 42.0694 30.2717C40.5558 30.2717 39.1404 29.9914 37.823 29.4308C36.5056 28.8703 35.3424 28.0854 34.3333 27.0764C33.3803 28.0854 32.2732 28.8703 31.0118 29.4308C29.7505 29.9914 28.3911 30.2717 26.9336 30.2717C25.3079 30.2717 23.8363 29.9914 22.5189 29.4308C21.2016 28.8703 20.0383 28.0854 19.0293 27.0764C17.852 28.2536 16.6888 29.0805 15.5396 29.557C14.3904 30.0335 13.0871 30.2717 11.6295 30.2717H11.2511C11.111 30.2717 10.9568 30.2157 10.7886 30.1036V53.8164Z" fill="#DE1D2D"/>
</svg>
