<svg width="22" height="22" viewBox="0 0 22 22" fill="none" xmlns="http://www.w3.org/2000/svg">
<path d="M21.2188 18.8125H0.90625C0.69905 18.8125 0.500336 18.8948 0.353823 19.0413C0.20731 19.1878 0.125 19.3865 0.125 19.5938L0.125 21.1562C0.125 21.3635 0.20731 21.5622 0.353823 21.7087C0.500336 21.8552 0.69905 21.9375 0.90625 21.9375H21.2188C21.426 21.9375 21.6247 21.8552 21.7712 21.7087C21.9177 21.5622 22 21.3635 22 21.1562V19.5938C22 19.3865 21.9177 19.1878 21.7712 19.0413C21.6247 18.8948 21.426 18.8125 21.2188 18.8125ZM21.2188 12.5625H0.90625C0.69905 12.5625 0.500336 12.6448 0.353823 12.7913C0.20731 12.9378 0.125 13.1365 0.125 13.3438L0.125 14.9062C0.125 15.1135 0.20731 15.3122 0.353823 15.4587C0.500336 15.6052 0.69905 15.6875 0.90625 15.6875H21.2188C21.426 15.6875 21.6247 15.6052 21.7712 15.4587C21.9177 15.3122 22 15.1135 22 14.9062V13.3438C22 13.1365 21.9177 12.9378 21.7712 12.7913C21.6247 12.6448 21.426 12.5625 21.2188 12.5625ZM21.2188 6.3125H0.90625C0.69905 6.3125 0.500336 6.39481 0.353823 6.54132C0.20731 6.68784 0.125 6.88655 0.125 7.09375L0.125 8.65625C0.125 8.86345 0.20731 9.06216 0.353823 9.20868C0.500336 9.35519 0.69905 9.4375 0.90625 9.4375H21.2188C21.426 9.4375 21.6247 9.35519 21.7712 9.20868C21.9177 9.06216 22 8.86345 22 8.65625V7.09375C22 6.88655 21.9177 6.68784 21.7712 6.54132C21.6247 6.39481 21.426 6.3125 21.2188 6.3125ZM21.2188 0.0625H0.90625C0.69905 0.0625 0.500336 0.14481 0.353823 0.291323C0.20731 0.437836 0.125 0.63655 0.125 0.84375L0.125 2.40625C0.125 2.61345 0.20731 2.81216 0.353823 2.95868C0.500336 3.10519 0.69905 3.1875 0.90625 3.1875H21.2188C21.426 3.1875 21.6247 3.10519 21.7712 2.95868C21.9177 2.81216 22 2.61345 22 2.40625V0.84375C22 0.63655 21.9177 0.437836 21.7712 0.291323C21.6247 0.14481 21.426 0.0625 21.2188 0.0625Z" fill="black"/>
</svg>
