<svg width="26" height="26" viewBox="0 0 26 26" fill="none" xmlns="http://www.w3.org/2000/svg">
<path d="M24.7501 0.543457H1.75012C1.197 0.543457 0.750122 0.990332 0.750122 1.54346V24.5435C0.750122 25.0966 1.197 25.5435 1.75012 25.5435H24.7501C25.3032 25.5435 25.7501 25.0966 25.7501 24.5435V1.54346C25.7501 0.990332 25.3032 0.543457 24.7501 0.543457ZM23.7501 23.5435H17.997V15.8622H21.247L21.7345 12.0903H17.997V9.68096C17.997 8.58721 18.3001 7.84346 19.8657 7.84346H21.8626V4.46846C21.5157 4.42158 20.3314 4.31846 18.9501 4.31846C16.0689 4.31846 14.097 6.07783 14.097 9.30596V12.0872H10.8407V15.8591H14.1001V23.5435H2.75012V2.54346H23.7501V23.5435Z" fill="black"/>
</svg>
