<svg width="27" height="27" viewBox="0 0 27 27" fill="none" xmlns="http://www.w3.org/2000/svg">
<path d="M13.2496 7.04346C12.0629 7.04346 10.9029 7.39535 9.91621 8.05464C8.92952 8.71393 8.16048 9.651 7.70636 10.7474C7.25223 11.8437 7.13341 13.0501 7.36492 14.214C7.59643 15.3779 8.16788 16.447 9.00699 17.2861C9.84611 18.1252 10.9152 18.6967 12.0791 18.9282C13.243 19.1597 14.4494 19.0409 15.5457 18.5867C16.6421 18.1326 17.5792 17.3636 18.2385 16.3769C18.8977 15.3902 19.2496 14.2301 19.2496 13.0435C19.248 11.4527 18.6153 9.9275 17.4904 8.80264C16.3656 7.67778 14.8404 7.04511 13.2496 7.04346ZM13.2496 17.0435C12.4585 17.0435 11.6852 16.8089 11.0274 16.3693C10.3696 15.9298 9.85687 15.3051 9.55412 14.5742C9.25136 13.8433 9.17215 13.039 9.32649 12.2631C9.48083 11.4872 9.8618 10.7744 10.4212 10.215C10.9806 9.65562 11.6933 9.27466 12.4693 9.12032C13.2452 8.96597 14.0495 9.04519 14.7804 9.34794C15.5113 9.65069 16.136 10.1634 16.5755 10.8212C17.015 11.479 17.2496 12.2523 17.2496 13.0435C17.2496 14.1043 16.8282 15.1217 16.0781 15.8719C15.3279 16.622 14.3105 17.0435 13.2496 17.0435ZM19.2496 0.043457H7.24963C5.39373 0.0454423 3.6144 0.783578 2.30208 2.0959C0.989755 3.40823 0.251619 5.18755 0.249634 7.04346V19.0435C0.251619 20.8994 0.989755 22.6787 2.30208 23.991C3.6144 25.3033 5.39373 26.0415 7.24963 26.0435H19.2496C21.1055 26.0415 22.8849 25.3033 24.1972 23.991C25.5095 22.6787 26.2476 20.8994 26.2496 19.0435V7.04346C26.2476 5.18755 25.5095 3.40823 24.1972 2.0959C22.8849 0.783578 21.1055 0.0454423 19.2496 0.043457ZM24.2496 19.0435C24.2496 20.3695 23.7228 21.6413 22.7852 22.579C21.8475 23.5167 20.5757 24.0435 19.2496 24.0435H7.24963C5.92355 24.0435 4.65178 23.5167 3.7141 22.579C2.77642 21.6413 2.24963 20.3695 2.24963 19.0435V7.04346C2.24963 5.71737 2.77642 4.44561 3.7141 3.50792C4.65178 2.57024 5.92355 2.04346 7.24963 2.04346H19.2496C20.5757 2.04346 21.8475 2.57024 22.7852 3.50792C23.7228 4.44561 24.2496 5.71737 24.2496 7.04346V19.0435ZM21.2496 6.54346C21.2496 6.84013 21.1617 7.13014 20.9968 7.37681C20.832 7.62349 20.5977 7.81574 20.3237 7.92928C20.0496 8.04281 19.748 8.07251 19.457 8.01464C19.166 7.95676 18.8988 7.8139 18.689 7.60412C18.4792 7.39434 18.3363 7.12706 18.2785 6.83609C18.2206 6.54512 18.2503 6.24352 18.3638 5.96943C18.4773 5.69534 18.6696 5.46107 18.9163 5.29625C19.163 5.13143 19.453 5.04346 19.7496 5.04346C20.1475 5.04346 20.529 5.20149 20.8103 5.4828C21.0916 5.7641 21.2496 6.14563 21.2496 6.54346Z" fill="black"/>
</svg>
