<svg width="29" height="22" viewBox="0 0 29 22" fill="none" xmlns="http://www.w3.org/2000/svg">
<path d="M28.7504 10.956C28.7504 10.8873 28.7504 10.8091 28.7472 10.7185C28.7441 10.4654 28.7379 10.181 28.7316 9.87788C28.7066 9.00601 28.6629 8.13726 28.5941 7.31851C28.5004 6.19038 28.3629 5.24976 28.1754 4.54351C27.9775 3.80647 27.5897 3.13428 27.0506 2.59412C26.5115 2.05396 25.8401 1.66474 25.1035 1.46538C24.2191 1.22788 22.4879 1.08101 20.0504 0.990381C18.891 0.946631 17.6504 0.918506 16.4097 0.902881C15.9754 0.896631 15.5722 0.893506 15.2097 0.890381H14.291C13.9285 0.893506 13.5254 0.896631 13.091 0.902881C11.8504 0.918506 10.6097 0.946631 9.45037 0.990381C7.01287 1.08413 5.27849 1.23101 4.39724 1.46538C3.66037 1.66425 2.98871 2.0533 2.44957 2.59354C1.91043 3.13378 1.52274 3.80623 1.32537 4.54351C1.13474 5.24976 1.00037 6.19038 0.906616 7.31851C0.837866 8.13726 0.794116 9.00601 0.769116 9.87788C0.759741 10.181 0.756616 10.4654 0.753491 10.7185C0.753491 10.8091 0.750366 10.8873 0.750366 10.956V11.131C0.750366 11.1998 0.750366 11.2779 0.753491 11.3685C0.756616 11.6216 0.762866 11.906 0.769116 12.2091C0.794116 13.081 0.837866 13.9498 0.906616 14.7685C1.00037 15.8966 1.13787 16.8373 1.32537 17.5435C1.72537 19.0404 2.90037 20.2216 4.39724 20.6216C5.27849 20.8591 7.01287 21.006 9.45037 21.0966C10.6097 21.1404 11.8504 21.1685 13.091 21.1841C13.5254 21.1904 13.9285 21.1935 14.291 21.1966H15.2097C15.5722 21.1935 15.9754 21.1904 16.4097 21.1841C17.6504 21.1685 18.891 21.1404 20.0504 21.0966C22.4879 21.0029 24.2222 20.856 25.1035 20.6216C26.6004 20.2216 27.7754 19.0435 28.1754 17.5435C28.366 16.8373 28.5004 15.8966 28.5941 14.7685C28.6629 13.9498 28.7066 13.081 28.7316 12.2091C28.741 11.906 28.7441 11.6216 28.7472 11.3685C28.7472 11.2779 28.7504 11.1998 28.7504 11.131V10.956ZM26.5004 11.1185C26.5004 11.1841 26.5004 11.256 26.4972 11.3404C26.4941 11.5841 26.4879 11.8529 26.4816 12.1435C26.4597 12.9748 26.416 13.806 26.3504 14.5779C26.266 15.5841 26.1472 16.4091 26.0004 16.9623C25.8066 17.6841 25.2379 18.256 24.5191 18.4466C23.8629 18.6216 22.2097 18.7623 19.9629 18.8466C18.8254 18.8904 17.6004 18.9185 16.3785 18.9341C15.9504 18.9404 15.5535 18.9435 15.1972 18.9435H14.3035L13.1222 18.9341C11.9004 18.9185 10.6785 18.8904 9.53787 18.8466C7.29099 18.7591 5.63474 18.6216 4.98162 18.4466C4.26287 18.2529 3.69412 17.6841 3.50037 16.9623C3.35349 16.4091 3.23474 15.5841 3.15037 14.5779C3.08474 13.806 3.04412 12.9748 3.01912 12.1435C3.00974 11.8529 3.00662 11.581 3.00349 11.3404C3.00349 11.256 3.00037 11.181 3.00037 11.1185V10.9685C3.00037 10.9029 3.00037 10.831 3.00349 10.7466C3.00662 10.5029 3.01287 10.2341 3.01912 9.94351C3.04099 9.11226 3.08474 8.28101 3.15037 7.50913C3.23474 6.50288 3.35349 5.67788 3.50037 5.12476C3.69412 4.40288 4.26287 3.83101 4.98162 3.64038C5.63787 3.46538 7.29099 3.32476 9.53787 3.24038C10.6754 3.19663 11.9004 3.16851 13.1222 3.15288C13.5504 3.14663 13.9472 3.14351 14.3035 3.14351H15.1972L16.3785 3.15288C17.6004 3.16851 18.8222 3.19663 19.9629 3.24038C22.2097 3.32788 23.866 3.46538 24.5191 3.64038C25.2379 3.83413 25.8066 4.40288 26.0004 5.12476C26.1472 5.67788 26.266 6.50288 26.3504 7.50913C26.416 8.28101 26.4566 9.11226 26.4816 9.94351C26.491 10.2341 26.4941 10.506 26.4972 10.7466C26.4972 10.831 26.5004 10.906 26.5004 10.9685V11.1185ZM11.9691 15.231L19.2191 11.0123L11.9691 6.85601V15.231Z" fill="black"/>
</svg>
