<svg width="18" height="20" viewBox="0 0 18 20" fill="none" xmlns="http://www.w3.org/2000/svg">
<path d="M14.6144 19.1976C13.5256 20.253 12.3369 20.0864 11.1926 19.5864C9.98163 19.0754 8.87066 19.0532 7.59304 19.5864C5.99324 20.2752 5.14891 20.0752 4.19347 19.1976C-1.22807 13.6094 -0.428169 5.09936 5.72661 4.78828C7.22642 4.86605 8.27073 5.6104 9.1484 5.67706C10.4593 5.41043 11.7147 4.64386 13.1146 4.74385C14.7921 4.87716 16.0586 5.54374 16.8919 6.74359C13.4256 8.82111 14.2478 13.3872 17.4251 14.6648C16.7919 16.3313 15.9698 17.9866 14.6033 19.2087L14.6144 19.1976ZM9.0373 4.72163C8.87066 2.24416 10.8815 0.199975 13.1923 0C13.5145 2.8663 10.5927 4.99937 9.0373 4.72163Z" fill="black"/>
</svg>
