<svg width="26" height="26" viewBox="0 0 26 26" fill="none" xmlns="http://www.w3.org/2000/svg">
<path d="M23.2405 0.543457H2.25925C1.14988 0.543457 0.249878 1.44346 0.249878 2.55283V23.5341C0.249878 24.6435 1.14988 25.5435 2.25925 25.5435H23.2405C24.3499 25.5435 25.2499 24.6435 25.2499 23.5341V2.55283C25.2499 1.44346 24.3499 0.543457 23.2405 0.543457ZM23.2405 23.5435C9.24675 23.5403 2.24988 23.5372 2.24988 23.5341C2.253 9.54033 2.25613 2.54346 2.25925 2.54346C16.253 2.54658 23.2499 2.54971 23.2499 2.55283C23.2468 16.5466 23.2436 23.5435 23.2405 23.5435ZM3.95613 9.91533H7.6655V21.8466H3.95613V9.91533ZM5.81238 8.28408C6.99675 8.28408 7.96238 7.32158 7.96238 6.13408C7.96238 5.85174 7.90677 5.57216 7.79872 5.31131C7.69067 5.05046 7.5323 4.81345 7.33266 4.6138C7.13301 4.41416 6.896 4.25579 6.63515 4.14774C6.3743 4.03969 6.09472 3.98408 5.81238 3.98408C5.53004 3.98408 5.25046 4.03969 4.98961 4.14774C4.72876 4.25579 4.49174 4.41416 4.2921 4.6138C4.09245 4.81345 3.93408 5.05046 3.82604 5.31131C3.71799 5.57216 3.66238 5.85174 3.66238 6.13408C3.65925 7.32158 4.62175 8.28408 5.81238 8.28408ZM13.6968 15.9435C13.6968 14.3872 13.9936 12.881 15.9218 12.881C17.8218 12.881 17.8499 14.6591 17.8499 16.0435V21.8466H21.5561V15.3028C21.5561 12.0903 20.8624 9.61846 17.1093 9.61846C15.3061 9.61846 14.0968 10.6091 13.5999 11.5466H13.5499V9.91533H9.9905V21.8466H13.6968V15.9435Z" fill="black"/>
</svg>
