<svg width="27" height="25" viewBox="0 0 27 25" fill="none" xmlns="http://www.w3.org/2000/svg">
<path d="M26.9233 3.66122C26.8476 3.47848 26.7195 3.32227 26.555 3.21236C26.3906 3.10245 26.1973 3.04376 25.9995 3.04372H22.1958C21.6639 2.13894 20.9071 1.38716 19.9987 0.861474C19.0904 0.335783 18.0615 0.0540684 17.012 0.0437173C16.2302 0.033462 15.4541 0.179684 14.7296 0.473781C14.0051 0.767878 13.3468 1.20391 12.7933 1.75622C12.2236 2.31525 11.7715 2.98253 11.4634 3.71883C11.1554 4.45512 10.9976 5.24558 10.9995 6.04372V6.80497C5.96701 5.47747 1.85076 1.38372 1.80701 1.33997C1.67285 1.20462 1.50281 1.11042 1.31691 1.06848C1.13101 1.02653 0.936992 1.03857 0.757709 1.10319C0.578425 1.16782 0.42134 1.28232 0.304951 1.43323C0.188563 1.58413 0.117719 1.76515 0.100761 1.95497C-0.437989 7.92872 1.29701 11.9262 2.85076 14.2275C3.60836 15.3651 4.52999 16.3844 5.58576 17.2525C3.68201 19.4437 0.684511 20.595 0.652011 20.6075C0.510903 20.6603 0.383563 20.7444 0.279506 20.8534C0.175448 20.9623 0.0973639 21.0934 0.0510871 21.2368C0.00481023 21.3802 -0.00846239 21.5322 0.0122606 21.6815C0.0329836 21.8307 0.0871664 21.9734 0.170761 22.0987C0.264511 22.2387 0.639511 22.73 1.55576 23.1887C2.68826 23.7562 4.18451 24.0437 5.99951 24.0437C14.8333 24.0437 22.2145 17.2412 22.9683 8.48872L26.707 4.75122C26.8468 4.61129 26.942 4.43304 26.9805 4.23902C27.019 4.045 26.9991 3.84392 26.9233 3.66122ZM21.2983 7.33747C21.1268 7.50933 21.0237 7.7377 21.0083 7.97997C20.4995 15.8662 13.9095 22.0437 5.99951 22.0437C4.67951 22.0437 3.74951 21.8687 3.09701 21.6587C4.53576 20.8775 6.54201 19.5337 7.83201 17.5987C7.90772 17.4849 7.95931 17.3568 7.98359 17.2224C8.00786 17.0879 8.00431 16.9498 7.97315 16.8167C7.94199 16.6837 7.88389 16.5584 7.80242 16.4487C7.72096 16.3389 7.61787 16.2471 7.49951 16.1787C7.44076 16.145 2.01076 12.8862 1.99951 4.17872C3.99951 5.80372 7.65576 8.32497 11.8333 9.02747C11.9764 9.05161 12.1231 9.04428 12.2632 9.00599C12.4033 8.96771 12.5333 8.89938 12.6443 8.80577C12.7553 8.71215 12.8445 8.59549 12.9059 8.46389C12.9672 8.33229 12.9992 8.18891 12.9995 8.04372V6.04372C12.9984 5.51028 13.104 4.98201 13.3101 4.48998C13.5161 3.99796 13.8186 3.55212 14.1995 3.17872C14.5647 2.81284 14.9995 2.52389 15.4783 2.32894C15.9571 2.13399 16.4701 2.03701 16.987 2.04372C18.5695 2.06372 20.0483 3.02872 20.667 4.44497C20.745 4.62303 20.8732 4.77449 21.0359 4.88083C21.1987 4.98717 21.3889 5.04377 21.5833 5.04372H23.5833L21.2983 7.33747Z" fill="black"/>
</svg>
